<svg width="1584" height="396" viewBox="0 0 1584 396" fill="none" xmlns="http://www.w3.org/2000/svg">
<rect width="1584" height="396" fill="#F5F5F5"/>
<g id="Awesome banner" clip-path="url(#clip0_0_1)">
<rect width="1584" height="396" fill="url(#paint0_linear_0_1)"/>
<ellipse id="Ellipse 2" cx="323" cy="64" rx="285" ry="288" fill="url(#paint1_linear_0_1)" fill-opacity="0.1"/>
<g id="copyright">
<path d="M75.95 334.52L72.30 334.52L72.30 311.16L77.20 311.16L83.70 330.04Q83.60 329.02 83.50 327.62Q83.41 326.23 83.33 324.79Q83.25 323.35 83.25 322.23L83.25 311.16L86.90 311.16L86.90 334.52L82 334.52L75.57 315.64Q75.63 316.57 75.73 317.88Q75.82 319.19 75.89 320.57Q75.95 321.94 75.95 323.10L75.95 334.52M98.80 334.84Q96.46 334.84 94.67 333.96Q92.88 333.08 91.89 331.53Q90.90 329.98 90.90 327.93Q90.90 325.78 92.13 324.18Q93.36 322.58 95.34 322.17L95.34 322.10Q93.65 321.75 92.61 320.38Q91.57 319 91.57 317.11Q91.57 315.26 92.48 313.85Q93.39 312.44 95.02 311.64Q96.66 310.84 98.80 310.84Q100.94 310.84 102.59 311.64Q104.24 312.44 105.15 313.85Q106.06 315.26 106.06 317.11Q106.06 319 105.01 320.38Q103.95 321.75 102.26 322.10L102.26 322.17Q104.24 322.58 105.47 324.18Q106.70 325.78 106.70 327.93Q106.70 329.98 105.71 331.53Q104.72 333.08 102.93 333.96Q101.14 334.84 98.80 334.84M98.80 320.73Q100.30 320.73 101.23 319.82Q102.16 318.90 102.16 317.46Q102.16 315.99 101.23 315.08Q100.30 314.17 98.80 314.17Q97.30 314.17 96.37 315.08Q95.44 315.99 95.44 317.46Q95.44 318.90 96.37 319.82Q97.30 320.73 98.80 320.73M98.80 331.45Q100.56 331.45 101.68 330.42Q102.80 329.40 102.80 327.74Q102.80 326.04 101.68 325Q100.56 323.96 98.80 323.96Q97.04 323.96 95.92 325Q94.80 326.04 94.80 327.74Q94.80 329.40 95.92 330.42Q97.04 331.45 98.80 331.45M114.35 334.52L110.70 334.52L110.70 311.16L115.60 311.16L122.10 330.04Q122 329.02 121.90 327.62Q121.81 326.23 121.73 324.79Q121.65 323.35 121.65 322.23L121.65 311.16L125.30 311.16L125.30 334.52L120.40 334.52L113.97 315.64Q114.03 316.57 114.13 317.88Q114.22 319.19 114.29 320.57Q114.35 321.94 114.35 323.10" fill="white" fill-opacity="0.9"/>
<path d="M161.48 325.24L151.24 325.24L151.24 322.68L161.48 322.68" fill="white" fill-opacity="0.9"/>
<path d="M195.02 334.84Q191.82 334.84 189.96 333.05Q188.11 331.26 188.11 328.12L188.11 317.56Q188.11 314.42 189.96 312.63Q191.82 310.84 195.02 310.84Q198.15 310.84 200.01 312.65Q201.87 314.46 201.87 317.56L198.99 317.56Q198.99 315.58 197.95 314.50Q196.91 313.43 195.02 313.43Q193.13 313.43 192.06 314.50Q190.99 315.58 190.99 317.56L190.99 328.12Q190.99 330.10 192.06 331.18Q193.13 332.25 195.02 332.25Q196.91 332.25 197.95 331.18Q198.99 330.10 198.99 328.12L201.87 328.12Q201.87 331.22 200.01 333.03Q198.15 334.84 195.02 334.84" fill="white" fill-opacity="0.9"/>
<path d="M213.96 334.84Q210.83 334.84 209 333.02Q207.18 331.19 207.18 327.80L207.18 317.88Q207.18 314.49 209 312.66Q210.83 310.84 213.96 310.84Q217.10 310.84 218.92 312.66Q220.75 314.49 220.75 317.85L220.75 327.80Q220.75 331.19 218.92 333.02Q217.10 334.84 213.96 334.84M213.96 332.25Q215.85 332.25 216.86 331.18Q217.87 330.10 217.87 328.12L217.87 317.56Q217.87 315.58 216.86 314.50Q215.85 313.43 213.96 313.43Q212.11 313.43 211.08 314.50Q210.06 315.58 210.06 317.56L210.06 328.12Q210.06 330.10 211.08 331.18Q212.11 332.25 213.96 332.25" fill="white" fill-opacity="0.9"/>
<path d="M228.65 334.52L225.87 334.52L225.87 311.16L230.12 311.16L233.10 321.27L236.20 311.16L240.46 311.16L240.46 334.52L237.67 334.52L237.67 323.48Q237.67 321.91 237.72 319.88Q237.77 317.85 237.87 315.77Q237.96 313.69 238.09 312.02L234.31 324.09L231.82 324.09L228.20 312.31Q228.46 314.68 228.55 317.50Q228.65 320.31 228.65 323.48" fill="white" fill-opacity="0.9"/>
<path d="M247.85 334.52L245.07 334.52L245.07 311.16L249.32 311.16L252.30 321.27L255.40 311.16L259.66 311.16L259.66 334.52L256.87 334.52L256.87 323.48Q256.87 321.91 256.92 319.88Q256.97 317.85 257.07 315.77Q257.16 313.69 257.29 312.02L253.51 324.09L251.02 324.09L247.40 312.31Q247.66 314.68 247.75 317.50Q247.85 320.31 247.85 323.48" fill="white" fill-opacity="0.9"/>
<path d="M271.56 334.84Q268.30 334.84 266.57 333.03Q264.84 331.22 264.84 328.12L264.84 311.16L267.72 311.16L267.72 328.12Q267.72 330.04 268.67 331.16Q269.61 332.28 271.56 332.28Q273.48 332.28 274.44 331.16Q275.40 330.04 275.40 328.12L275.40 311.16L278.28 311.16L278.28 328.12Q278.28 331.26 276.57 333.05Q274.86 334.84 271.56 334.84" fill="white" fill-opacity="0.9"/>
<path d="M286.83 334.52L284.04 334.52L284.04 311.16L287.88 311.16L295.02 331.16Q294.95 330.36 294.87 329.19Q294.79 328.02 294.75 326.73Q294.70 325.43 294.70 324.28L294.70 311.16L297.48 311.16L297.48 334.52L293.64 334.52L286.54 314.52Q286.60 315.29 286.67 316.46Q286.73 317.62 286.78 318.92Q286.83 320.22 286.83 321.40" fill="white" fill-opacity="0.9"/>
<path d="M316.20 334.52L303.72 334.52L303.72 331.90L308.49 331.90L308.49 313.78L303.72 313.78L303.72 311.16L316.20 311.16L316.20 313.78L311.43 313.78L311.43 331.90L316.20 331.90" fill="white" fill-opacity="0.9"/>
<path d="M330.60 334.52L327.72 334.52L327.72 313.78L321.32 313.78L321.32 311.16L337 311.16L337 313.78L330.60 313.78" fill="white" fill-opacity="0.9"/>
<path d="M349.80 334.52L346.92 334.52L346.92 325.78L339.88 311.16L342.95 311.16L347.50 320.76Q347.88 321.56 348.11 322.12Q348.33 322.68 348.39 322.94Q348.46 322.68 348.70 322.12Q348.94 321.56 349.32 320.76L353.87 311.16L356.84 311.16L349.80 325.78" fill="white" fill-opacity="0.9"/>
<path d="M382.83 334.52L380.04 334.52L380.04 311.16L383.88 311.16L391.02 331.16Q390.95 330.36 390.87 329.19Q390.79 328.02 390.75 326.73Q390.70 325.43 390.70 324.28L390.70 311.16L393.48 311.16L393.48 334.52L389.64 334.52L382.54 314.52Q382.60 315.29 382.67 316.46Q382.73 317.62 382.78 318.92Q382.83 320.22 382.83 321.40" fill="white" fill-opacity="0.9"/>
<path d="M405.96 334.84Q402.83 334.84 401 333.02Q399.18 331.19 399.18 327.80L399.18 317.88Q399.18 314.49 401 312.66Q402.83 310.84 405.96 310.84Q409.10 310.84 410.92 312.66Q412.75 314.49 412.75 317.85L412.75 327.80Q412.75 331.19 410.92 333.02Q409.10 334.84 405.96 334.84M405.96 332.25Q407.85 332.25 408.86 331.18Q409.87 330.10 409.87 328.12L409.87 317.56Q409.87 315.58 408.86 314.50Q407.85 313.43 405.96 313.43Q404.11 313.43 403.08 314.50Q402.06 315.58 402.06 317.56L402.06 328.12Q402.06 330.10 403.08 331.18Q404.11 332.25 405.96 332.25" fill="white" fill-opacity="0.9"/>
<path d="M424.55 334.52L418.51 334.52L418.51 311.16L424.55 311.16Q426.83 311.16 428.47 312.02Q430.12 312.89 431.03 314.46Q431.95 316.02 431.95 318.17L431.95 327.48Q431.95 329.62 431.03 331.21Q430.12 332.79 428.47 333.66Q426.83 334.52 424.55 334.52M421.39 313.72L421.39 331.96L424.55 331.96Q426.67 331.96 427.87 330.78Q429.07 329.59 429.07 327.48L429.07 318.17Q429.07 316.09 427.87 314.90Q426.67 313.72 424.55 313.72" fill="white" fill-opacity="0.9"/>
<path d="M451.40 334.52L437.96 334.52L437.96 311.16L451.40 311.16L451.40 313.78L440.81 313.78L440.81 321.02L450.28 321.02L450.28 323.58L440.81 323.58L440.81 331.90L451.40 331.90" fill="white" fill-opacity="0.9"/>
<path d="M463.69 334.84Q460.30 334.84 458.28 333.05Q456.27 331.26 456.27 328.12L459.15 328.12Q459.15 330.07 460.39 331.18Q461.64 332.28 463.69 332.28Q465.67 332.28 466.86 331.13Q468.04 329.98 468.04 328.12Q468.04 326.71 467.29 325.67Q466.54 324.63 465.13 324.25L461.58 323.26Q459.37 322.62 458.11 320.97Q456.84 319.32 456.84 317.08Q456.84 315.22 457.67 313.82Q458.51 312.41 460.01 311.62Q461.51 310.84 463.47 310.84Q465.45 310.84 466.97 311.62Q468.49 312.41 469.35 313.80Q470.22 315.19 470.22 317.02L467.34 317.02Q467.34 315.42 466.25 314.41Q465.16 313.40 463.47 313.40Q461.77 313.40 460.71 314.41Q459.66 315.42 459.66 317.02Q459.66 318.30 460.35 319.21Q461.03 320.12 462.28 320.47L465.93 321.50Q468.27 322.14 469.56 323.91Q470.86 325.69 470.86 328.12Q470.86 331.19 468.91 333.02Q466.95 334.84 463.69 334.84" fill="white" fill-opacity="0.9"/>
</g>
<path d="M77.39 197.88Q74.99 197.88 73.60 196.54Q72.21 195.19 72.21 192.84L72.21 184.92Q72.21 182.57 73.60 181.22Q74.99 179.88 77.39 179.88Q79.74 179.88 81.14 181.24Q82.53 182.59 82.53 184.92L80.37 184.92Q80.37 183.43 79.59 182.63Q78.81 181.82 77.39 181.82Q75.98 181.82 75.17 182.63Q74.37 183.43 74.37 184.92L74.37 192.84Q74.37 194.33 75.17 195.13Q75.98 195.94 77.39 195.94Q78.81 195.94 79.59 195.13Q80.37 194.33 80.37 192.84L82.53 192.84Q82.53 195.17 81.14 196.52Q79.74 197.88 77.39 197.88" fill="white" fill-opacity="0.7"/>
<path d="M88.77 197.64L86.61 197.64L86.61 180.12L88.77 180.12L88.77 186.96L88.79 186.96Q88.96 185.64 89.87 184.92Q90.78 184.20 92.30 184.20Q94.29 184.20 95.46 185.42Q96.64 186.65 96.64 188.76L96.64 197.64L94.48 197.64L94.48 189.12Q94.48 187.63 93.72 186.83Q92.97 186.02 91.67 186.02Q90.33 186.02 89.55 186.86Q88.77 187.70 88.77 189.24" fill="white" fill-opacity="0.7"/>
<path d="M112.12 197.64L100.84 197.64L100.84 195.67L105.52 195.67L105.52 186.41L101.32 186.41L101.32 184.44L107.68 184.44L107.68 195.67L112.12 195.67L112.12 197.64M106.36 182.06Q105.57 182.06 105.11 181.66Q104.66 181.25 104.66 180.55Q104.66 179.83 105.11 179.41Q105.57 178.99 106.36 178.99Q107.15 178.99 107.61 179.41Q108.06 179.83 108.06 180.55Q108.06 181.25 107.61 181.66Q107.15 182.06 106.36 182.06" fill="white" fill-opacity="0.7"/>
<path d="M125.56 197.64L121.72 197.64Q120.09 197.64 119.10 196.69Q118.12 195.74 118.12 194.16L118.12 186.41L114.33 186.41L114.33 184.44L118.12 184.44L118.12 180.72L120.28 180.72L120.28 184.44L125.68 184.44L125.68 186.41L120.28 186.41L120.28 194.16Q120.28 194.83 120.68 195.25Q121.07 195.67 121.72 195.67L125.56 195.67" fill="white" fill-opacity="0.7"/>
<path d="M132.09 197.64L129.93 197.64L129.93 180.12L132.09 180.12L132.09 189.89L134.61 189.89L138.30 184.44L140.78 184.44L136.53 190.73L141.02 197.64L138.50 197.64L134.66 191.76L132.09 191.76" fill="white" fill-opacity="0.7"/>
<path d="M148.05 197.88Q146.01 197.88 144.81 196.74Q143.61 195.60 143.61 193.75Q143.61 192.53 144.16 191.62Q144.71 190.70 145.70 190.19Q146.68 189.67 147.95 189.67L152.03 189.67L152.03 188.64Q152.03 186.07 149.22 186.07Q147.98 186.07 147.21 186.53Q146.44 186.98 146.39 187.80L144.23 187.80Q144.35 186.24 145.68 185.22Q147.02 184.20 149.22 184.20Q151.62 184.20 152.91 185.35Q154.19 186.50 154.19 188.57L154.19 197.64L152.06 197.64L152.06 195.24L152.01 195.24Q151.82 196.46 150.78 197.17Q149.75 197.88 148.05 197.88M148.58 196.06Q150.16 196.06 151.10 195.29Q152.03 194.52 152.03 193.20L152.03 191.35L148.19 191.35Q147.14 191.35 146.48 191.99Q145.82 192.62 145.82 193.68Q145.82 194.78 146.55 195.42Q147.28 196.06 148.58 196.06" fill="white" fill-opacity="0.7"/>
<path d="M161.25 197.64L159.09 197.64L159.09 184.44L161.25 184.44L161.25 186.96L161.30 186.96Q161.46 185.69 162.38 184.94Q163.29 184.20 164.82 184.20Q166.89 184.20 168 185.44Q169.12 186.67 169.12 188.95L169.12 190.08L166.96 190.08L166.96 188.95Q166.96 186.07 164.15 186.07Q162.74 186.07 161.99 186.89Q161.25 187.70 161.25 189.24" fill="white" fill-opacity="0.7"/>
<path d="M176.85 197.88Q174.81 197.88 173.61 196.74Q172.41 195.60 172.41 193.75Q172.41 192.53 172.96 191.62Q173.51 190.70 174.50 190.19Q175.48 189.67 176.75 189.67L180.83 189.67L180.83 188.64Q180.83 186.07 178.02 186.07Q176.78 186.07 176.01 186.53Q175.24 186.98 175.19 187.80L173.03 187.80Q173.15 186.24 174.48 185.22Q175.82 184.20 178.02 184.20Q180.42 184.20 181.71 185.35Q182.99 186.50 182.99 188.57L182.99 197.64L180.86 197.64L180.86 195.24L180.81 195.24Q180.62 196.46 179.58 197.17Q178.55 197.88 176.85 197.88M177.38 196.06Q178.96 196.06 179.90 195.29Q180.83 194.52 180.83 193.20L180.83 191.35L176.99 191.35Q175.94 191.35 175.28 191.99Q174.62 192.62 174.62 193.68Q174.62 194.78 175.35 195.42Q176.08 196.06 177.38 196.06" fill="white" fill-opacity="0.7"/>
<path d="M206.80 197.88Q204.35 197.88 203.06 196.52Q201.76 195.17 201.76 192.84L201.76 180.12L203.92 180.12L203.92 192.84Q203.92 194.28 204.63 195.12Q205.34 195.96 206.80 195.96Q208.24 195.96 208.96 195.12Q209.68 194.28 209.68 192.84L209.68 180.12L211.84 180.12L211.84 192.84Q211.84 195.19 210.56 196.54Q209.27 197.88 206.80 197.88" fill="white" fill-opacity="0.7"/>
<path d="M218.37 197.64L216.21 197.64L216.21 184.44L218.37 184.44L218.37 186.96L218.39 186.96Q218.56 185.64 219.47 184.92Q220.38 184.20 221.90 184.20Q223.89 184.20 225.06 185.42Q226.24 186.65 226.24 188.76L226.24 197.64L224.08 197.64L224.08 189.14Q224.08 187.63 223.32 186.83Q222.57 186.02 221.27 186.02Q219.93 186.02 219.15 186.86Q218.37 187.70 218.37 189.24" fill="white" fill-opacity="0.7"/>
<path d="M241.72 197.64L230.44 197.64L230.44 195.67L235.12 195.67L235.12 186.41L230.92 186.41L230.92 184.44L237.28 184.44L237.28 195.67L241.72 195.67L241.72 197.64M235.96 182.06Q235.17 182.06 234.71 181.66Q234.26 181.25 234.26 180.55Q234.26 179.83 234.71 179.41Q235.17 178.99 235.96 178.99Q236.75 178.99 237.21 179.41Q237.66 179.83 237.66 180.55Q237.66 181.25 237.21 181.66Q236.75 182.06 235.96 182.06" fill="white" fill-opacity="0.7"/>
<path d="M251.42 197.64L248.58 197.64L244.10 184.44L246.42 184.44L249.30 193.32Q249.57 194.11 249.76 194.84Q249.95 195.58 250.05 195.98Q250.17 195.58 250.34 194.84Q250.50 194.11 250.74 193.32L253.62 184.44L255.90 184.44" fill="white" fill-opacity="0.7"/>
<path d="M264.40 197.88Q262.07 197.88 260.64 196.48Q259.22 195.07 259.22 192.60L259.22 189.48Q259.22 187.01 260.64 185.60Q262.07 184.20 264.40 184.20Q265.96 184.20 267.12 184.82Q268.29 185.45 268.94 186.58Q269.58 187.70 269.58 189.24L269.58 191.59L261.33 191.59L261.33 192.84Q261.33 194.30 262.17 195.16Q263.01 196.01 264.40 196.01Q265.60 196.01 266.38 195.54Q267.16 195.07 267.33 194.28L269.49 194.28Q269.27 195.94 267.88 196.91Q266.49 197.88 264.40 197.88M261.33 189.24L261.33 189.91L267.47 189.91L267.47 189.24Q267.47 187.68 266.67 186.83Q265.86 185.98 264.40 185.98Q262.94 185.98 262.13 186.83Q261.33 187.68 261.33 189.24" fill="white" fill-opacity="0.7"/>
<path d="M276.45 197.64L274.29 197.64L274.29 184.44L276.45 184.44L276.45 186.96L276.50 186.96Q276.66 185.69 277.58 184.94Q278.49 184.20 280.02 184.20Q282.09 184.20 283.20 185.44Q284.32 186.67 284.32 188.95L284.32 190.08L282.16 190.08L282.16 188.95Q282.16 186.07 279.35 186.07Q277.94 186.07 277.19 186.89Q276.45 187.70 276.45 189.24" fill="white" fill-opacity="0.7"/>
<path d="M293.73 197.83L292.67 197.83Q290.46 197.83 289.25 196.84Q288.04 195.84 288.04 194.02L290.20 194.02Q290.20 194.93 290.85 195.44Q291.50 195.96 292.67 195.96L293.73 195.96Q294.93 195.96 295.59 195.43Q296.25 194.90 296.25 193.94Q296.25 192.24 294.69 192.02L291.04 191.50Q289.70 191.30 288.95 190.38Q288.21 189.46 288.21 187.94Q288.21 186.22 289.40 185.23Q290.58 184.25 292.67 184.25L293.73 184.25Q295.65 184.25 296.86 185.20Q298.07 186.14 298.17 187.68L295.98 187.68Q295.94 186.98 295.32 186.53Q294.71 186.07 293.73 186.07L292.67 186.07Q291.57 186.07 290.94 186.58Q290.32 187.08 290.32 187.94Q290.32 189.34 291.59 189.53L295 190.01Q298.36 190.49 298.36 193.94Q298.36 195.79 297.15 196.81Q295.94 197.83 293.73 197.83" fill="white" fill-opacity="0.7"/>
<path d="M313.72 197.64L302.44 197.64L302.44 195.67L307.12 195.67L307.12 186.41L302.92 186.41L302.92 184.44L309.28 184.44L309.28 195.67L313.72 195.67L313.72 197.64M307.96 182.06Q307.17 182.06 306.71 181.66Q306.26 181.25 306.26 180.55Q306.26 179.83 306.71 179.41Q307.17 178.99 307.96 178.99Q308.75 178.99 309.21 179.41Q309.66 179.83 309.66 180.55Q309.66 181.25 309.21 181.66Q308.75 182.06 307.96 182.06" fill="white" fill-opacity="0.7"/>
<path d="M327.16 197.64L323.32 197.64Q321.69 197.64 320.70 196.69Q319.72 195.74 319.72 194.16L319.72 186.41L315.93 186.41L315.93 184.44L319.72 184.44L319.72 180.72L321.88 180.72L321.88 184.44L327.28 184.44L327.28 186.41L321.88 186.41L321.88 194.16Q321.88 194.83 322.28 195.25Q322.67 195.67 323.32 195.67L327.16 195.67" fill="white" fill-opacity="0.7"/>
<path d="M335.73 201.96L333.47 201.96L335.42 196.82L330.50 184.44L332.82 184.44L335.94 192.60Q336.14 193.08 336.30 193.61Q336.47 194.14 336.54 194.52Q336.62 194.14 336.78 193.61Q336.95 193.08 337.12 192.60L340.02 184.44L342.30 184.44" fill="white" fill-opacity="0.7"/>
<path d="M364.43 197.88Q362.46 197.88 361.28 196.56Q360.09 195.24 360.09 192.98L360.09 189.12Q360.09 186.84 361.26 185.52Q362.44 184.20 364.43 184.20Q365.92 184.20 366.89 184.94Q367.86 185.69 368.06 186.96L368.08 186.96L368.03 183.96L368.03 180.12L370.19 180.12L370.19 197.64L368.03 197.64L368.03 195.12L368.01 195.12Q367.84 196.42 366.88 197.15Q365.92 197.88 364.43 197.88M365.15 196.01Q366.50 196.01 367.26 195.17Q368.03 194.33 368.03 192.84L368.03 189.24Q368.03 187.75 367.26 186.91Q366.50 186.07 365.15 186.07Q363.78 186.07 363.02 186.78Q362.25 187.49 362.25 189.12L362.25 192.96Q362.25 194.57 363.02 195.29Q363.78 196.01 365.15 196.01" fill="white" fill-opacity="0.7"/>
<path d="M379.60 197.88Q377.27 197.88 375.84 196.48Q374.42 195.07 374.42 192.60L374.42 189.48Q374.42 187.01 375.84 185.60Q377.27 184.20 379.60 184.20Q381.16 184.20 382.32 184.82Q383.49 185.45 384.14 186.58Q384.78 187.70 384.78 189.24L384.78 191.59L376.53 191.59L376.53 192.84Q376.53 194.30 377.37 195.16Q378.21 196.01 379.60 196.01Q380.80 196.01 381.58 195.54Q382.36 195.07 382.53 194.28L384.69 194.28Q384.47 195.94 383.08 196.91Q381.69 197.88 379.60 197.88M376.53 189.24L376.53 189.91L382.67 189.91L382.67 189.24Q382.67 187.68 381.87 186.83Q381.06 185.98 379.60 185.98Q378.14 185.98 377.33 186.83Q376.53 187.68 376.53 189.24" fill="white" fill-opacity="0.7"/>
<path d="M394.36 201.96L390.66 201.96L390.66 199.99L394.38 199.99Q395.51 199.99 396.16 199.36Q396.81 198.72 396.81 197.64L396.81 196.44L396.86 194.28L396.78 194.28Q396.59 195.46 395.66 196.09Q394.72 196.73 393.30 196.73Q391.26 196.73 390.09 195.43Q388.91 194.14 388.91 191.88L388.91 189.10Q388.91 186.84 390.09 185.52Q391.26 184.20 393.30 184.20Q394.72 184.20 395.66 184.87Q396.59 185.54 396.78 186.72L396.83 186.72L396.83 184.44L398.97 184.44L398.97 197.64Q398.97 199.63 397.73 200.80Q396.50 201.96 394.36 201.96M393.95 194.93Q395.30 194.93 396.06 194.09Q396.83 193.25 396.83 191.76L396.83 189.24Q396.83 187.75 396.06 186.91Q395.30 186.07 393.95 186.07Q392.58 186.07 391.83 186.86Q391.07 187.66 391.07 189L391.07 192Q391.07 193.34 391.83 194.14Q392.58 194.93 393.95 194.93" fill="white" fill-opacity="0.7"/>
<path d="M406.05 197.64L403.89 197.64L403.89 184.44L406.05 184.44L406.05 186.96L406.10 186.96Q406.26 185.69 407.18 184.94Q408.09 184.20 409.62 184.20Q411.69 184.20 412.80 185.44Q413.92 186.67 413.92 188.95L413.92 190.08L411.76 190.08L411.76 188.95Q411.76 186.07 408.95 186.07Q407.54 186.07 406.79 186.89Q406.05 187.70 406.05 189.24" fill="white" fill-opacity="0.7"/>
<path d="M422.80 197.88Q420.47 197.88 419.04 196.48Q417.62 195.07 417.62 192.60L417.62 189.48Q417.62 187.01 419.04 185.60Q420.47 184.20 422.80 184.20Q424.36 184.20 425.52 184.82Q426.69 185.45 427.34 186.58Q427.98 187.70 427.98 189.24L427.98 191.59L419.73 191.59L419.73 192.84Q419.73 194.30 420.57 195.16Q421.41 196.01 422.80 196.01Q424 196.01 424.78 195.54Q425.56 195.07 425.73 194.28L427.89 194.28Q427.67 195.94 426.28 196.91Q424.89 197.88 422.80 197.88M419.73 189.24L419.73 189.91L425.87 189.91L425.87 189.24Q425.87 187.68 425.07 186.83Q424.26 185.98 422.80 185.98Q421.34 185.98 420.53 186.83Q419.73 187.68 419.73 189.24" fill="white" fill-opacity="0.7"/>
<path d="M437.20 197.88Q434.87 197.88 433.44 196.48Q432.02 195.07 432.02 192.60L432.02 189.48Q432.02 187.01 433.44 185.60Q434.87 184.20 437.20 184.20Q438.76 184.20 439.92 184.82Q441.09 185.45 441.74 186.58Q442.38 187.70 442.38 189.24L442.38 191.59L434.13 191.59L434.13 192.84Q434.13 194.30 434.97 195.16Q435.81 196.01 437.20 196.01Q438.40 196.01 439.18 195.54Q439.96 195.07 440.13 194.28L442.29 194.28Q442.07 195.94 440.68 196.91Q439.29 197.88 437.20 197.88M434.13 189.24L434.13 189.91L440.27 189.91L440.27 189.24Q440.27 187.68 439.47 186.83Q438.66 185.98 437.20 185.98Q435.74 185.98 434.93 186.83Q434.13 187.68 434.13 189.24" fill="white" fill-opacity="0.7"/>
<path d="M466.19 197.88Q463.79 197.88 462.35 196.54Q460.91 195.19 460.91 192.84L460.91 189.24Q460.91 186.89 462.35 185.54Q463.79 184.20 466.19 184.20Q468.47 184.20 469.88 185.42Q471.28 186.65 471.35 188.76L469.19 188.76Q469.12 187.49 468.33 186.80Q467.54 186.12 466.19 186.12Q464.78 186.12 463.92 186.92Q463.07 187.73 463.07 189.22L463.07 192.84Q463.07 194.33 463.92 195.14Q464.78 195.96 466.19 195.96Q467.54 195.96 468.33 195.26Q469.12 194.57 469.19 193.32L471.35 193.32Q471.28 195.43 469.88 196.66Q468.47 197.88 466.19 197.88" fill="white" fill-opacity="0.7"/>
<path d="M480.40 197.88Q478.07 197.88 476.64 196.48Q475.22 195.07 475.22 192.60L475.22 189.48Q475.22 187.01 476.64 185.60Q478.07 184.20 480.40 184.20Q481.96 184.20 483.12 184.82Q484.29 185.45 484.94 186.58Q485.58 187.70 485.58 189.24L485.58 191.59L477.33 191.59L477.33 192.84Q477.33 194.30 478.17 195.16Q479.01 196.01 480.40 196.01Q481.60 196.01 482.38 195.54Q483.16 195.07 483.33 194.28L485.49 194.28Q485.27 195.94 483.88 196.91Q482.49 197.88 480.40 197.88M477.33 189.24L477.33 189.91L483.47 189.91L483.47 189.24Q483.47 187.68 482.67 186.83Q481.86 185.98 480.40 185.98Q478.94 185.98 478.13 186.83Q477.33 187.68 477.33 189.24" fill="white" fill-opacity="0.7"/>
<path d="M492.45 197.64L490.29 197.64L490.29 184.44L492.45 184.44L492.45 186.96L492.50 186.96Q492.66 185.69 493.58 184.94Q494.49 184.20 496.02 184.20Q498.09 184.20 499.20 185.44Q500.32 186.67 500.32 188.95L500.32 190.08L498.16 190.08L498.16 188.95Q498.16 186.07 495.35 186.07Q493.94 186.07 493.19 186.89Q492.45 187.70 492.45 189.24" fill="white" fill-opacity="0.7"/>
<path d="M514.36 197.64L510.52 197.64Q508.89 197.64 507.90 196.69Q506.92 195.74 506.92 194.16L506.92 186.41L503.13 186.41L503.13 184.44L506.92 184.44L506.92 180.72L509.08 180.72L509.08 184.44L514.48 184.44L514.48 186.41L509.08 186.41L509.08 194.16Q509.08 194.83 509.48 195.25Q509.87 195.67 510.52 195.67L514.36 195.67" fill="white" fill-opacity="0.7"/>
<path d="M529.72 197.64L518.44 197.64L518.44 195.67L523.12 195.67L523.12 186.41L518.92 186.41L518.92 184.44L525.28 184.44L525.28 195.67L529.72 195.67L529.72 197.64M523.96 182.06Q523.17 182.06 522.71 181.66Q522.26 181.25 522.26 180.55Q522.26 179.83 522.71 179.41Q523.17 178.99 523.96 178.99Q524.75 178.99 525.21 179.41Q525.66 179.83 525.66 180.55Q525.66 181.25 525.21 181.66Q524.75 182.06 523.96 182.06" fill="white" fill-opacity="0.7"/>
<path d="M538.12 197.64L535.96 197.64L535.96 188.21L532.12 188.21L532.12 186.24L535.96 186.24L535.96 183.48Q535.96 181.92 536.94 181.02Q537.93 180.12 539.66 180.12L543.52 180.12L543.52 182.09L539.66 182.09Q538.12 182.09 538.12 183.48L538.12 186.24L543.52 186.24L543.52 188.21L538.12 188.21" fill="white" fill-opacity="0.7"/>
<path d="M558.52 197.64L547.24 197.64L547.24 195.67L551.92 195.67L551.92 186.41L547.72 186.41L547.72 184.44L554.08 184.44L554.08 195.67L558.52 195.67L558.52 197.64M552.76 182.06Q551.97 182.06 551.51 181.66Q551.06 181.25 551.06 180.55Q551.06 179.83 551.51 179.41Q551.97 178.99 552.76 178.99Q553.55 178.99 554.01 179.41Q554.46 179.83 554.46 180.55Q554.46 181.25 554.01 181.66Q553.55 182.06 552.76 182.06" fill="white" fill-opacity="0.7"/>
<path d="M566.99 197.88Q564.59 197.88 563.15 196.54Q561.71 195.19 561.71 192.84L561.71 189.24Q561.71 186.89 563.15 185.54Q564.59 184.20 566.99 184.20Q569.27 184.20 570.68 185.42Q572.08 186.65 572.15 188.76L569.99 188.76Q569.92 187.49 569.13 186.80Q568.34 186.12 566.99 186.12Q565.58 186.12 564.72 186.92Q563.87 187.73 563.87 189.22L563.87 192.84Q563.87 194.33 564.72 195.14Q565.58 195.96 566.99 195.96Q568.34 195.96 569.13 195.26Q569.92 194.57 569.99 193.32L572.15 193.32Q572.08 195.43 570.68 196.66Q569.27 197.88 566.99 197.88" fill="white" fill-opacity="0.7"/>
<path d="M580.05 197.88Q578.01 197.88 576.81 196.74Q575.61 195.60 575.61 193.75Q575.61 192.53 576.16 191.62Q576.71 190.70 577.70 190.19Q578.68 189.67 579.95 189.67L584.03 189.67L584.03 188.64Q584.03 186.07 581.22 186.07Q579.98 186.07 579.21 186.53Q578.44 186.98 578.39 187.80L576.23 187.80Q576.35 186.24 577.68 185.22Q579.02 184.20 581.22 184.20Q583.62 184.20 584.91 185.35Q586.19 186.50 586.19 188.57L586.19 197.64L584.06 197.64L584.06 195.24L584.01 195.24Q583.82 196.46 582.78 197.17Q581.75 197.88 580.05 197.88M580.58 196.06Q582.16 196.06 583.10 195.29Q584.03 194.52 584.03 193.20L584.03 191.35L580.19 191.35Q579.14 191.35 578.48 191.99Q577.82 192.62 577.82 193.68Q577.82 194.78 578.55 195.42Q579.28 196.06 580.58 196.06" fill="white" fill-opacity="0.7"/>
<path d="M600.76 197.64L596.92 197.64Q595.29 197.64 594.30 196.69Q593.32 195.74 593.32 194.16L593.32 186.41L589.53 186.41L589.53 184.44L593.32 184.44L593.32 180.72L595.48 180.72L595.48 184.44L600.88 184.44L600.88 186.41L595.48 186.41L595.48 194.16Q595.48 194.83 595.88 195.25Q596.27 195.67 596.92 195.67L600.76 195.67" fill="white" fill-opacity="0.7"/>
<path d="M610 197.88Q607.67 197.88 606.24 196.48Q604.82 195.07 604.82 192.60L604.82 189.48Q604.82 187.01 606.24 185.60Q607.67 184.20 610 184.20Q611.56 184.20 612.72 184.82Q613.89 185.45 614.54 186.58Q615.18 187.70 615.18 189.24L615.18 191.59L606.93 191.59L606.93 192.84Q606.93 194.30 607.77 195.16Q608.61 196.01 610 196.01Q611.20 196.01 611.98 195.54Q612.76 195.07 612.93 194.28L615.09 194.28Q614.87 195.94 613.48 196.91Q612.09 197.88 610 197.88M606.93 189.24L606.93 189.91L613.07 189.91L613.07 189.24Q613.07 187.68 612.27 186.83Q611.46 185.98 610 185.98Q608.54 185.98 607.73 186.83Q606.93 187.68 606.93 189.24" fill="white" fill-opacity="0.7"/>
<path d="M624.93 197.83L623.87 197.83Q621.66 197.83 620.45 196.84Q619.24 195.84 619.24 194.02L621.40 194.02Q621.40 194.93 622.05 195.44Q622.70 195.96 623.87 195.96L624.93 195.96Q626.13 195.96 626.79 195.43Q627.45 194.90 627.45 193.94Q627.45 192.24 625.89 192.02L622.24 191.50Q620.90 191.30 620.15 190.38Q619.41 189.46 619.41 187.94Q619.41 186.22 620.60 185.23Q621.78 184.25 623.87 184.25L624.93 184.25Q626.85 184.25 628.06 185.20Q629.27 186.14 629.37 187.68L627.18 187.68Q627.14 186.98 626.52 186.53Q625.91 186.07 624.93 186.07L623.87 186.07Q622.77 186.07 622.14 186.58Q621.52 187.08 621.52 187.94Q621.52 189.34 622.79 189.53L626.20 190.01Q629.56 190.49 629.56 193.94Q629.56 195.79 628.35 196.81Q627.14 197.83 624.93 197.83" fill="white" fill-opacity="0.7"/>
<path d="M652.43 197.88Q650.46 197.88 649.28 196.56Q648.09 195.24 648.09 192.98L648.09 189.12Q648.09 186.84 649.26 185.52Q650.44 184.20 652.43 184.20Q653.92 184.20 654.89 184.94Q655.86 185.69 656.06 186.96L656.08 186.96L656.03 183.96L656.03 180.12L658.19 180.12L658.19 197.64L656.03 197.64L656.03 195.12L656.01 195.12Q655.84 196.42 654.88 197.15Q653.92 197.88 652.43 197.88M653.15 196.01Q654.50 196.01 655.26 195.17Q656.03 194.33 656.03 192.84L656.03 189.24Q656.03 187.75 655.26 186.91Q654.50 186.07 653.15 186.07Q651.78 186.07 651.02 186.78Q650.25 187.49 650.25 189.12L650.25 192.96Q650.25 194.57 651.02 195.29Q651.78 196.01 653.15 196.01" fill="white" fill-opacity="0.7"/>
<path d="M667.60 197.83Q665.22 197.83 663.82 196.44Q662.42 195.05 662.42 192.55L662.42 189.53Q662.42 187.01 663.81 185.63Q665.20 184.25 667.60 184.25Q670 184.25 671.39 185.63Q672.78 187.01 672.78 189.53L672.78 192.55Q672.78 195.05 671.38 196.44Q669.98 197.83 667.60 197.83M667.60 195.91Q669.02 195.91 669.82 195.12Q670.62 194.33 670.62 192.79L670.62 189.29Q670.62 187.75 669.82 186.96Q669.02 186.17 667.60 186.17Q666.21 186.17 665.39 186.96Q664.58 187.75 664.58 189.29L664.58 192.79Q664.58 194.33 665.39 195.12Q666.21 195.91 667.60 195.91" fill="white" fill-opacity="0.7"/>
<path d="M680.08 197.64L677.70 197.64L675.54 184.44L677.42 184.44L678.76 193.75Q678.83 194.28 678.90 194.92Q678.98 195.55 679 195.96Q679.05 195.55 679.11 194.92Q679.17 194.28 679.26 193.75L680.92 184.44L683.08 184.44L684.74 193.75Q684.83 194.28 684.92 194.92Q685 195.55 685.02 195.96Q685.07 195.55 685.14 194.92Q685.22 194.28 685.29 193.75L686.68 184.44L688.46 184.44L686.20 197.64L683.82 197.64L682.31 188.52Q682.22 187.85 682.13 187.09Q682.05 186.34 682 185.93Q681.98 186.34 681.88 187.09Q681.78 187.85 681.66 188.52" fill="white" fill-opacity="0.7"/>
<path d="M693.57 197.64L691.41 197.64L691.41 184.44L693.57 184.44L693.57 186.96L693.59 186.96Q693.76 185.64 694.67 184.92Q695.58 184.20 697.10 184.20Q699.09 184.20 700.26 185.42Q701.44 186.65 701.44 188.76L701.44 197.64L699.28 197.64L699.28 189.14Q699.28 187.63 698.52 186.83Q697.77 186.02 696.47 186.02Q695.13 186.02 694.35 186.86Q693.57 187.70 693.57 189.24" fill="white" fill-opacity="0.7"/>
<path d="M716.80 197.64L712.72 197.64Q710.97 197.64 709.92 196.62Q708.88 195.60 708.88 193.92L708.88 182.09L704.32 182.09L704.32 180.12L711.04 180.12L711.04 193.92Q711.04 194.74 711.50 195.20Q711.95 195.67 712.72 195.67L716.80 195.67" fill="white" fill-opacity="0.7"/>
<path d="M725.20 197.83Q722.82 197.83 721.42 196.44Q720.02 195.05 720.02 192.55L720.02 189.53Q720.02 187.01 721.41 185.63Q722.80 184.25 725.20 184.25Q727.60 184.25 728.99 185.63Q730.38 187.01 730.38 189.53L730.38 192.55Q730.38 195.05 728.98 196.44Q727.58 197.83 725.20 197.83M725.20 195.91Q726.62 195.91 727.42 195.12Q728.22 194.33 728.22 192.79L728.22 189.29Q728.22 187.75 727.42 186.96Q726.62 186.17 725.20 186.17Q723.81 186.17 722.99 186.96Q722.18 187.75 722.18 189.29L722.18 192.79Q722.18 194.33 722.99 195.12Q723.81 195.91 725.20 195.91" fill="white" fill-opacity="0.7"/>
<path d="M738.45 197.88Q736.41 197.88 735.21 196.74Q734.01 195.60 734.01 193.75Q734.01 192.53 734.56 191.62Q735.11 190.70 736.10 190.19Q737.08 189.67 738.35 189.67L742.43 189.67L742.43 188.64Q742.43 186.07 739.62 186.07Q738.38 186.07 737.61 186.53Q736.84 186.98 736.79 187.80L734.63 187.80Q734.75 186.24 736.08 185.22Q737.42 184.20 739.62 184.20Q742.02 184.20 743.31 185.35Q744.59 186.50 744.59 188.57L744.59 197.64L742.46 197.64L742.46 195.24L742.41 195.24Q742.22 196.46 741.18 197.17Q740.15 197.88 738.45 197.88M738.98 196.06Q740.56 196.06 741.50 195.29Q742.43 194.52 742.43 193.20L742.43 191.35L738.59 191.35Q737.54 191.35 736.88 191.99Q736.22 192.62 736.22 193.68Q736.22 194.78 736.95 195.42Q737.68 196.06 738.98 196.06" fill="white" fill-opacity="0.7"/>
<path d="M753.23 197.88Q751.26 197.88 750.08 196.56Q748.89 195.24 748.89 192.98L748.89 189.12Q748.89 186.84 750.06 185.52Q751.24 184.20 753.23 184.20Q754.72 184.20 755.69 184.94Q756.66 185.69 756.86 186.96L756.88 186.96L756.83 183.96L756.83 180.12L758.99 180.12L758.99 197.64L756.83 197.64L756.83 195.12L756.81 195.12Q756.64 196.42 755.68 197.15Q754.72 197.88 753.23 197.88M753.95 196.01Q755.30 196.01 756.06 195.17Q756.83 194.33 756.83 192.84L756.83 189.24Q756.83 187.75 756.06 186.91Q755.30 186.07 753.95 186.07Q752.58 186.07 751.82 186.78Q751.05 187.49 751.05 189.12L751.05 192.96Q751.05 194.57 751.82 195.29Q752.58 196.01 753.95 196.01" fill="white" fill-opacity="0.7"/>
<path d="M767.25 197.88Q765.21 197.88 764.01 196.74Q762.81 195.60 762.81 193.75Q762.81 192.53 763.36 191.62Q763.91 190.70 764.90 190.19Q765.88 189.67 767.15 189.67L771.23 189.67L771.23 188.64Q771.23 186.07 768.42 186.07Q767.18 186.07 766.41 186.53Q765.64 186.98 765.59 187.80L763.43 187.80Q763.55 186.24 764.88 185.22Q766.22 184.20 768.42 184.20Q770.82 184.20 772.11 185.35Q773.39 186.50 773.39 188.57L773.39 197.64L771.26 197.64L771.26 195.24L771.21 195.24Q771.02 196.46 769.98 197.17Q768.95 197.88 767.25 197.88M767.78 196.06Q769.36 196.06 770.30 195.29Q771.23 194.52 771.23 193.20L771.23 191.35L767.39 191.35Q766.34 191.35 765.68 191.99Q765.02 192.62 765.02 193.68Q765.02 194.78 765.75 195.42Q766.48 196.06 767.78 196.06" fill="white" fill-opacity="0.7"/>
<path d="M783.57 197.88Q782.08 197.88 781.12 197.15Q780.16 196.42 779.99 195.12L779.97 195.12L779.97 197.64L777.81 197.64L777.81 180.12L779.97 180.12L779.97 183.96L779.92 186.96L779.94 186.96Q780.14 185.69 781.11 184.94Q782.08 184.20 783.57 184.20Q785.56 184.20 786.74 185.52Q787.91 186.84 787.91 189.12L787.91 192.98Q787.91 195.24 786.74 196.56Q785.56 197.88 783.57 197.88M782.85 196.01Q784.22 196.01 784.98 195.29Q785.75 194.57 785.75 192.96L785.75 189.12Q785.75 187.49 784.98 186.78Q784.22 186.07 782.85 186.07Q781.53 186.07 780.75 186.91Q779.97 187.75 779.97 189.24L779.97 192.84Q779.97 194.33 780.75 195.17Q781.53 196.01 782.85 196.01" fill="white" fill-opacity="0.7"/>
<path d="M803.20 197.64L799.12 197.64Q797.37 197.64 796.32 196.62Q795.28 195.60 795.28 193.92L795.28 182.09L790.72 182.09L790.72 180.12L797.44 180.12L797.44 193.92Q797.44 194.74 797.90 195.20Q798.35 195.67 799.12 195.67L803.20 195.67" fill="white" fill-opacity="0.7"/>
<path d="M811.60 197.88Q809.27 197.88 807.84 196.48Q806.42 195.07 806.42 192.60L806.42 189.48Q806.42 187.01 807.84 185.60Q809.27 184.20 811.60 184.20Q813.16 184.20 814.32 184.82Q815.49 185.45 816.14 186.58Q816.78 187.70 816.78 189.24L816.78 191.59L808.53 191.59L808.53 192.84Q808.53 194.30 809.37 195.16Q810.21 196.01 811.60 196.01Q812.80 196.01 813.58 195.54Q814.36 195.07 814.53 194.28L816.69 194.28Q816.47 195.94 815.08 196.91Q813.69 197.88 811.60 197.88M808.53 189.24L808.53 189.91L814.67 189.91L814.67 189.24Q814.67 187.68 813.87 186.83Q813.06 185.98 811.60 185.98Q810.14 185.98 809.33 186.83Q808.53 187.68 808.53 189.24" fill="white" fill-opacity="0.7"/>
<path d="M841.82 197.64L838.98 197.64L834.50 184.44L836.82 184.44L839.70 193.32Q839.97 194.11 840.16 194.84Q840.35 195.58 840.45 195.98Q840.57 195.58 840.74 194.84Q840.90 194.11 841.14 193.32L844.02 184.44L846.30 184.44" fill="white" fill-opacity="0.7"/>
<path d="M860.92 197.64L849.64 197.64L849.64 195.67L854.32 195.67L854.32 186.41L850.12 186.41L850.12 184.44L856.48 184.44L856.48 195.67L860.92 195.67L860.92 197.64M855.16 182.06Q854.37 182.06 853.91 181.66Q853.46 181.25 853.46 180.55Q853.46 179.83 853.91 179.41Q854.37 178.99 855.16 178.99Q855.95 178.99 856.41 179.41Q856.86 179.83 856.86 180.55Q856.86 181.25 856.41 181.66Q855.95 182.06 855.16 182.06" fill="white" fill-opacity="0.7"/>
<path d="M868.05 197.88Q866.01 197.88 864.81 196.74Q863.61 195.60 863.61 193.75Q863.61 192.53 864.16 191.62Q864.71 190.70 865.70 190.19Q866.68 189.67 867.95 189.67L872.03 189.67L872.03 188.64Q872.03 186.07 869.22 186.07Q867.98 186.07 867.21 186.53Q866.44 186.98 866.39 187.80L864.23 187.80Q864.35 186.24 865.68 185.22Q867.02 184.20 869.22 184.20Q871.62 184.20 872.91 185.35Q874.19 186.50 874.19 188.57L874.19 197.64L872.06 197.64L872.06 195.24L872.01 195.24Q871.82 196.46 870.78 197.17Q869.75 197.88 868.05 197.88M868.58 196.06Q870.16 196.06 871.10 195.29Q872.03 194.52 872.03 193.20L872.03 191.35L868.19 191.35Q867.14 191.35 866.48 191.99Q865.82 192.62 865.82 193.68Q865.82 194.78 866.55 195.42Q867.28 196.06 868.58 196.06" fill="white" fill-opacity="0.7"/>
<path d="M897.54 197.64L893.01 197.64L893.01 180.12L897.54 180.12Q899.25 180.12 900.48 180.77Q901.72 181.42 902.40 182.59Q903.09 183.77 903.09 185.38L903.09 192.36Q903.09 193.97 902.40 195.16Q901.72 196.34 900.48 196.99Q899.25 197.64 897.54 197.64M895.17 182.04L895.17 195.72L897.54 195.72Q899.13 195.72 900.03 194.83Q900.93 193.94 900.93 192.36L900.93 185.38Q900.93 183.82 900.03 182.93Q899.13 182.04 897.54 182.04" fill="white" fill-opacity="0.7"/>
<path d="M918.52 197.64L907.24 197.64L907.24 195.67L911.92 195.67L911.92 186.41L907.72 186.41L907.72 184.44L914.08 184.44L914.08 195.67L918.52 195.67L918.52 197.64M912.76 182.06Q911.97 182.06 911.51 181.66Q911.06 181.25 911.06 180.55Q911.06 179.83 911.51 179.41Q911.97 178.99 912.76 178.99Q913.55 178.99 914.01 179.41Q914.46 179.83 914.46 180.55Q914.46 181.25 914.01 181.66Q913.55 182.06 912.76 182.06" fill="white" fill-opacity="0.7"/>
<path d="M927.16 201.96L923.46 201.96L923.46 199.99L927.18 199.99Q928.31 199.99 928.96 199.36Q929.61 198.72 929.61 197.64L929.61 196.44L929.66 194.28L929.58 194.28Q929.39 195.46 928.46 196.09Q927.52 196.73 926.10 196.73Q924.06 196.73 922.89 195.43Q921.71 194.14 921.71 191.88L921.71 189.10Q921.71 186.84 922.89 185.52Q924.06 184.20 926.10 184.20Q927.52 184.20 928.46 184.87Q929.39 185.54 929.58 186.72L929.63 186.72L929.63 184.44L931.77 184.44L931.77 197.64Q931.77 199.63 930.53 200.80Q929.30 201.96 927.16 201.96M926.75 194.93Q928.10 194.93 928.86 194.09Q929.63 193.25 929.63 191.76L929.63 189.24Q929.63 187.75 928.86 186.91Q928.10 186.07 926.75 186.07Q925.38 186.07 924.63 186.86Q923.87 187.66 923.87 189L923.87 192Q923.87 193.34 924.63 194.14Q925.38 194.93 926.75 194.93" fill="white" fill-opacity="0.7"/>
<path d="M947.32 197.64L936.04 197.64L936.04 195.67L940.72 195.67L940.72 186.41L936.52 186.41L936.52 184.44L942.88 184.44L942.88 195.67L947.32 195.67L947.32 197.64M941.56 182.06Q940.77 182.06 940.31 181.66Q939.86 181.25 939.86 180.55Q939.86 179.83 940.31 179.41Q940.77 178.99 941.56 178.99Q942.35 178.99 942.81 179.41Q943.26 179.83 943.26 180.55Q943.26 181.25 942.81 181.66Q942.35 182.06 941.56 182.06" fill="white" fill-opacity="0.7"/>
<path d="M961.60 197.64L951.52 197.64L951.52 180.12L953.68 180.12L953.68 195.67L961.60 195.67" fill="white" fill-opacity="0.7"/>
<path d="M970 197.83Q967.62 197.83 966.22 196.44Q964.82 195.05 964.82 192.55L964.82 189.53Q964.82 187.01 966.21 185.63Q967.60 184.25 970 184.25Q972.40 184.25 973.79 185.63Q975.18 187.01 975.18 189.53L975.18 192.55Q975.18 195.05 973.78 196.44Q972.38 197.83 970 197.83M970 195.91Q971.42 195.91 972.22 195.12Q973.02 194.33 973.02 192.79L973.02 189.29Q973.02 187.75 972.22 186.96Q971.42 186.17 970 186.17Q968.61 186.17 967.79 186.96Q966.98 187.75 966.98 189.29L966.98 192.79Q966.98 194.33 967.79 195.12Q968.61 195.91 970 195.91" fill="white" fill-opacity="0.7"/>
<path d="M984.59 197.88Q982.19 197.88 980.75 196.54Q979.31 195.19 979.31 192.84L979.31 189.24Q979.31 186.89 980.75 185.54Q982.19 184.20 984.59 184.20Q986.87 184.20 988.28 185.42Q989.68 186.65 989.75 188.76L987.59 188.76Q987.52 187.49 986.73 186.80Q985.94 186.12 984.59 186.12Q983.18 186.12 982.32 186.92Q981.47 187.73 981.47 189.22L981.47 192.84Q981.47 194.33 982.32 195.14Q983.18 195.96 984.59 195.96Q985.94 195.96 986.73 195.26Q987.52 194.57 987.59 193.32L989.75 193.32Q989.68 195.43 988.28 196.66Q986.87 197.88 984.59 197.88" fill="white" fill-opacity="0.7"/>
<path d="M996.09 197.64L993.93 197.64L993.93 180.12L996.09 180.12L996.09 189.89L998.61 189.89L1002.30 184.44L1004.78 184.44L1000.53 190.73L1005.02 197.64L1002.50 197.64L998.66 191.76L996.09 191.76" fill="white" fill-opacity="0.7"/>
<path d="M1013.20 197.88Q1010.87 197.88 1009.44 196.48Q1008.02 195.07 1008.02 192.60L1008.02 189.48Q1008.02 187.01 1009.44 185.60Q1010.87 184.20 1013.20 184.20Q1014.76 184.20 1015.92 184.82Q1017.09 185.45 1017.74 186.58Q1018.38 187.70 1018.38 189.24L1018.38 191.59L1010.13 191.59L1010.13 192.84Q1010.13 194.30 1010.97 195.16Q1011.81 196.01 1013.20 196.01Q1014.40 196.01 1015.18 195.54Q1015.96 195.07 1016.13 194.28L1018.29 194.28Q1018.07 195.94 1016.68 196.91Q1015.29 197.88 1013.20 197.88M1010.13 189.24L1010.13 189.91L1016.27 189.91L1016.27 189.24Q1016.27 187.68 1015.47 186.83Q1014.66 185.98 1013.20 185.98Q1011.74 185.98 1010.93 186.83Q1010.13 187.68 1010.13 189.24" fill="white" fill-opacity="0.7"/>
<path d="M1025.25 197.64L1023.09 197.64L1023.09 184.44L1025.25 184.44L1025.25 186.96L1025.30 186.96Q1025.46 185.69 1026.38 184.94Q1027.29 184.20 1028.82 184.20Q1030.89 184.20 1032 185.44Q1033.12 186.67 1033.12 188.95L1033.12 190.08L1030.96 190.08L1030.96 188.95Q1030.96 186.07 1028.15 186.07Q1026.74 186.07 1025.99 186.89Q1025.25 187.70 1025.25 189.24" fill="white" fill-opacity="0.7"/>
<path d="M1042 197.88Q1041.11 197.88 1040.57 197.35Q1040.03 196.82 1040.03 195.98Q1040.03 195.10 1040.57 194.54Q1041.11 193.99 1042 193.99Q1042.89 193.99 1043.43 194.54Q1043.97 195.10 1043.97 195.98Q1043.97 196.82 1043.43 197.35Q1042.89 197.88 1042 197.88" fill="white" fill-opacity="0.7"/>
<path d="M76.11 136.06L66.42 136.06L84.56 65.98L97.14 65.98L115.18 136.06L105.49 136.06L101.07 117.82L80.53 117.82L76.11 136.06M87.54 88.92L82.45 109.95L99.15 109.95L94.16 89.02Q92.72 83.26 91.86 79.23Q90.99 75.20 90.80 73.76Q90.61 75.20 89.74 79.23Q88.88 83.26 87.54 88.92M137.55 136.06L128.05 136.06L128.05 65.98L150.80 65.98Q157.52 65.98 162.42 68.57Q167.31 71.16 170 75.82Q172.69 80.48 172.69 86.91Q172.69 93.24 170 97.90Q167.31 102.56 162.37 105.15Q157.42 107.74 150.80 107.74L137.55 107.74L137.55 136.06M137.55 74.43L137.55 99.29L150.80 99.29Q156.37 99.29 159.63 95.88Q162.90 92.48 162.90 86.91Q162.90 81.24 159.63 77.84Q156.37 74.43 150.80 74.43L137.55 74.43M225.10 136.06L186.90 136.06L186.90 127.42L201.20 127.42L201.20 74.62L186.90 74.62L186.90 65.98L225.10 65.98L225.10 74.62L210.80 74.62L210.80 127.42L225.10 127.42L225.10 136.06M263.98 137.02Q253.62 137.02 247.47 131.60Q241.33 126.17 241.33 116.67L250.83 116.67Q250.83 122.24 254.38 125.40Q257.94 128.57 263.98 128.57Q269.74 128.57 273.15 125.36Q276.56 122.14 276.56 116.76Q276.56 112.73 274.35 109.71Q272.14 106.68 268.11 105.63L257.74 102.84Q250.93 100.92 246.94 95.88Q242.96 90.84 242.96 83.93Q242.96 78.27 245.50 74Q248.05 69.72 252.66 67.37Q257.26 65.02 263.31 65.02Q269.46 65.02 274.11 67.37Q278.77 69.72 281.36 73.95Q283.95 78.17 283.95 83.74L274.54 83.74Q274.54 79.13 271.42 76.25Q268.30 73.37 263.31 73.37Q258.32 73.37 255.30 76.25Q252.27 79.13 252.27 83.74Q252.27 87.48 254.29 90.03Q256.30 92.57 259.95 93.63L270.61 96.51Q277.81 98.43 281.84 103.85Q285.87 109.28 285.87 116.76Q285.87 122.91 283.18 127.47Q280.50 132.03 275.55 134.52Q270.61 137.02 263.98 137.02M342.51 136.06L301.71 136.06L301.71 65.98L342.51 65.98L342.51 74.52L311.12 74.52L311.12 95.36L339.15 95.36L339.15 103.61L311.12 103.61L311.12 127.52L342.51 127.52L342.51 136.06M383.60 136.06L374.10 136.06L374.10 74.62L355.09 74.62L355.09 65.98L402.51 65.98L402.51 74.62L383.60 74.62L383.60 136.06M436.40 137.02Q426.51 137.02 421.18 131.55Q415.86 126.08 415.86 116.67L415.86 65.98L425.36 65.98L425.36 116.67Q425.36 122.24 428.10 125.40Q430.83 128.57 436.40 128.57Q441.87 128.57 444.70 125.40Q447.54 122.24 447.54 116.67L447.54 65.98L457.04 65.98L457.04 116.67Q457.04 126.17 451.71 131.60Q446.38 137.02 436.40 137.02M551.98 137.02Q542.29 137.02 536.58 131.60Q530.86 126.17 530.86 116.67L530.86 85.28Q530.86 75.87 536.58 70.44Q542.29 65.02 551.98 65.02Q561.58 65.02 567.30 70.49Q573.01 75.96 573.01 85.28L563.50 85.28Q563.50 79.61 560.43 76.54Q557.36 73.47 551.98 73.47Q546.51 73.47 543.44 76.54Q540.37 79.61 540.37 85.28L540.37 116.67Q540.37 122.43 543.44 125.50Q546.51 128.57 551.98 128.57Q557.36 128.57 560.43 125.50Q563.50 122.43 563.50 116.67L563.50 107.55L549.87 107.55L549.87 99.10L573.01 99.10L573.01 116.67Q573.01 126.08 567.30 131.55Q561.58 137.02 551.98 137.02M609.20 137.02Q599.60 137.02 594.03 131.45Q588.46 125.88 588.46 115.71L588.46 86.24Q588.46 76.16 594.03 70.59Q599.60 65.02 609.20 65.02Q618.80 65.02 624.37 70.54Q629.94 76.06 629.94 86.24L629.94 115.71Q629.94 125.88 624.37 131.45Q618.80 137.02 609.20 137.02M609.20 128.57Q614.58 128.57 617.50 125.50Q620.43 122.43 620.43 116.67L620.43 85.28Q620.43 79.61 617.55 76.54Q614.67 73.47 609.20 73.47Q603.73 73.47 600.85 76.54Q597.97 79.61 597.97 85.28L597.97 116.67Q597.97 122.43 600.90 125.50Q603.82 128.57 609.20 128.57M673.14 136.06L660.37 136.06L642.42 65.98L652.21 65.98L663.82 113.21Q664.98 117.72 665.79 121.90Q666.61 126.08 666.99 128.28Q667.28 126.08 668.19 121.85Q669.10 117.63 670.16 113.12L681.39 65.98L691.18 65.98L673.14 136.06M782.77 137.02Q773.07 137.02 767.36 131.60Q761.65 126.17 761.65 116.67L761.65 85.28Q761.65 75.87 767.36 70.44Q773.07 65.02 782.77 65.02Q792.37 65.02 798.08 70.49Q803.79 75.96 803.79 85.28L794.29 85.28Q794.29 79.61 791.22 76.54Q788.14 73.47 782.77 73.47Q777.30 73.47 774.22 76.54Q771.15 79.61 771.15 85.28L771.15 116.67Q771.15 122.43 774.22 125.50Q777.30 128.57 782.77 128.57Q788.14 128.57 791.22 125.50Q794.29 122.43 794.29 116.67L803.79 116.67Q803.79 126.08 798.08 131.55Q792.37 137.02 782.77 137.02M828.85 136.06L819.34 136.06L819.34 65.98L828.85 65.98L828.85 95.55L850.35 95.55L850.35 65.98L859.86 65.98L859.86 136.06L850.35 136.06L850.35 104.19L828.85 104.19L828.85 136.06M916.30 136.06L878.10 136.06L878.10 127.42L892.40 127.42L892.40 74.62L878.10 74.62L878.10 65.98L916.30 65.98L916.30 74.62LNaN 74.62LNaN 127.42L916.30 127.42L916.30 136.06M959.60 136.06L950.10 136.06L950.10 74.62L931.09 74.62L931.09 65.98L978.51 65.98L978.51 74.62L959.60 74.62L959.60 136.06M1001.55 136.06L992.05 136.06L992.05 65.98L1001.55 65.98L1001.55 95.74L1011.34 95.74L1026.32 65.98L1036.69 65.98L1019.70 99.68L1037.55 136.06L1026.80 136.06L1011.15 104.09L1001.55 104.09L1001.55 136.06M1055.31 136.06L1045.62 136.06L1063.76 65.98L1076.34 65.98L1094.38 136.06L1084.69 136.06L1080.27 117.82L1059.73 117.82L1055.31 136.06M1066.74 88.92L1061.65 109.95L1078.35 109.95L1073.36 89.02Q1071.92 83.26 1071.06 79.23Q1070.19 75.20 NaN 73.76Q1069.81 75.20 1068.94 79.23Q1068.08 83.26 1066.74 88.92M1116.75 136.06L1107.34 136.06L1107.34 65.98L1129.04 65.98Q1135.47 65.98 1140.27 68.52Q1145.07 71.07 1147.76 75.63Q1150.45 80.19 1150.45 86.33Q1150.45 93.44 1146.85 98.52Q1143.25 103.61 1137.30 105.72L1151.41 136.06L1140.94 136.06L1127.60 106.78L1116.75 106.78L1116.75 136.06M1116.75 74.43L1116.75 98.33L1129.04 98.33Q1134.42 98.33 1137.54 95.07Q1140.66 91.80 1140.66 86.43Q1140.66 80.96 1137.49 77.69Q1134.32 74.43 1129.04 74.43L1116.75 74.43M1170.51 136.06L1160.82 136.06L1178.96 65.98L1191.54 65.98L1209.58 136.06L1199.89 136.06L1195.47 117.82L1174.93 117.82L1170.51 136.06M1181.94 88.92L1176.85 109.95L1193.55 109.95L1188.56 89.02Q1187.12 83.26 1186.26 79.23Q1185.39 75.20 1185.20 73.76Q1185.01 75.20 1184.14 79.23Q1183.28 83.26 1181.94 88.92M1242.80 137.02Q1232.91 137.02 1227.58 131.55Q1222.26 126.08 1222.26 116.67L1222.26 65.98L1231.76 65.98L1231.76 116.67Q1231.76 122.24 1234.50 125.40Q1237.23 128.57 1242.80 128.57Q1248.27 128.57 1251.10 125.40Q1253.94 122.24 1253.94 116.67L1253.94 65.98L1263.44 65.98L1263.44 116.67Q1263.44 126.17 1258.11 131.60Q1252.78 137.02 1242.80 137.02M1288.78 136.06L1279.86 136.06L1279.86 65.98L1292.14 65.98L1313.07 125.12Q1312.78 122.62 1312.54 118.92Q1312.30 115.23 1312.16 111.24Q1312.02 107.26 1312.02 103.71L1312.02 65.98L1321.04 65.98L1321.04 136.06L1308.66 136.06L1287.92 76.92Q1288.11 79.42 1288.30 83.02Q1288.50 86.62 1288.64 90.56Q1288.78 94.49 1288.78 97.95L1288.78 136.06M1377.10 136.06L1338.90 136.06L1338.90 127.42L1353.20 127.42L1353.20 74.62L1338.90 74.62L1338.90 65.98L1377.10 65.98L1377.10 74.62L1362.80 74.62L1362.80 127.42L1377.10 127.42L1377.10 136.06M1421.94 136.06L1409.17 136.06L1391.22 65.98L1401.01 65.98L1412.62 113.21Q1413.78 117.72 1414.59 121.90Q1415.41 126.08 1415.79 128.28Q1416.08 126.08 1416.99 121.85Q1417.90 117.63 1418.96 113.12L1430.19 65.98L1439.98 65.98L1421.94 136.06M1494.51 136.06L1453.71 136.06L1453.71 65.98L1494.51 65.98L1494.51 74.52L1463.12 74.52L1463.12 95.36L1491.15 95.36L1491.15 103.61L1463.12 103.61L1463.12 127.52L1494.51 127.52L1494.51 136.06M1519.95 136.06L1510.54 136.06L1510.54 65.98L1532.24 65.98Q1538.67 65.98 1543.47 68.52Q1548.27 71.07 1550.96 75.63Q1553.65 80.19 1553.65 86.33Q1553.65 93.44 1550.05 98.52Q1546.45 103.61 1540.50 105.72L1554.61 136.06L1544.14 136.06L1530.80 106.78L1519.95 106.78L1519.95 136.06M1519.95 74.43L1519.95 98.33L1532.24 98.33Q1537.62 98.33 1540.74 95.07Q1543.86 91.80 1543.86 86.43Q1543.86 80.96 1540.69 77.69Q1537.52 74.43 1532.24 74.43L1519.95 74.43M1588.78 137.02Q1578.42 137.02 1572.27 131.60Q1566.13 126.17 1566.13 116.67L1575.63 116.67Q1575.63 122.24 1579.18 125.40Q1582.74 128.57 1588.78 128.57Q1594.54 128.57 1597.95 125.36Q1601.36 122.14 1601.36 116.76Q1601.36 112.73 1599.15 109.71Q1596.94 106.68 1592.91 105.63L1582.54 102.84Q1575.73 100.92 1571.74 95.88Q1567.76 90.84 1567.76 83.93Q1567.76 78.27 1570.30 74Q1572.85 69.72 1577.46 67.37Q1582.06 65.02 1588.11 65.02Q1594.26 65.02 1598.91 67.37Q1603.57 69.72 1606.16 73.95Q1608.75 78.17 1608.75 83.74L1599.34 83.74Q1599.34 79.13 1596.22 76.25Q1593.10 73.37 1588.11 73.37Q1583.12 73.37 1580.10 76.25Q1577.07 79.13 1577.07 83.74Q1577.07 87.48 1579.09 90.03Q1581.10 92.57 1584.75 93.63L1595.41 96.51Q1602.61 98.43 1606.64 103.85Q1610.67 109.28 1610.67 116.76Q1610.67 122.91 1607.98 127.47Q1605.30 132.03 1600.35 134.52Q1595.41 137.02 1588.78 137.02M1665.10 136.06L1626.90 136.06L1626.90 127.42L1641.20 127.42L1641.20 74.62L1626.90 74.62L1626.90 65.98L1665.10 65.98L1665.10 74.62L1650.80 74.62L1650.80 127.42L1665.10 127.42L1665.10 136.06M1708.40 136.06L1698.90 136.06L1698.90 74.62L1679.89 74.62L1679.89 65.98L1727.31 65.98L1727.31 74.62L1708.40 74.62L1708.40 136.06M1766 136.06L1756.50 136.06L1756.50 110.04L1735.47 65.98L1745.55 65.98L1758.51 93.63Q1759.66 96.12 1760.38 98.14Q1761.10 100.16 1761.30 101.02Q1761.58 100.16 1762.30 98.14Q1763.02 96.12 1764.27 93.63L1777.14 65.98L1786.93 65.98L1766 110.04" fill="url(#paint2_linear_0_1)"/>
<g id="Group 1">
<rect id="Rectangle 1" x="26" y="168" width="12" height="184" rx="5" fill="url(#paint3_linear_0_1)" fill-opacity="0.9"/>
</g>
<g id="Group 1_2">
<rect id="Rectangle 2" x="26" y="38" width="12" height="119" rx="5" fill="url(#paint4_linear_0_1)" fill-opacity="0.9"/>
</g>
<ellipse id="Ellipse 1" cx="148.5" cy="573" rx="215.5" ry="214" fill="url(#paint5_linear_0_1)" fill-opacity="0.4"/>
<rect id="Rectangle 3" x="1229" y="48" width="300" height="300" rx="25" fill="#FFFBFB" fill-opacity="0.9"/>
<g id="placeholder-logo"><g transform="translate(1229,48) translate(0.0,60.0) scale(1.2000)"><g fill="#666666">
  <path d="m88.05,27.65c-3.15,4 -3.2,51.2 -0.05,54.35c2.75,2.75 71.7,3.15 74.45,0.45c2.85,-2.9 2.3,-53.85 -0.65,-55.9c-1.95,-1.35 -7.15,-1.55 -36.95,-1.55l-34.7,0l-2.1,2.65zm69.45,3.35c0.65,0 1,8.6 1,23.75l0,23.75l-33,0l-33,0l-0.25,-23c-0.15,-12.6 -0.1,-23.45 0.15,-24.1c0.35,-0.85 8.9,-1.05 32.25,-0.75c17.55,0.2 32.3,0.35 32.85,0.35z"/>
  <path d="m99.15,37.3c-6.85,7.35 4.25,17.35 11.4,10.25c1.35,-1.35 2.45,-3.65 2.45,-5.05c0,-6.45 -9.35,-9.95 -13.85,-5.2z"/>
  <path d="m135,42.5c-0.7,0.85 -5.25,5.15 -10.1,9.6l-8.85,8.1l-3.2,-3.2l-3.15,-3.15l-6.35,6.3c-5.55,5.5 -6.35,6.75 -6.35,10.05l0,3.8l28.5,0l28.5,0l0,-8.6l0,-8.55l-8.15,-7.7c-9.35,-8.85 -9.15,-8.7 -10.85,-6.65zm7.25,15.2c0.95,0.9 1.75,2.9 1.75,4.45c6.35,-5.05 4.75,-7.15 4.9,-11.55c0.95,0 0,0 0,0l-6.65,7.1z"/>
  <path d="m53.65,110.75c0.1,4.8 0.45,8.65 0.75,8.5c0.35,-0.15 1.3,-0.25 2.1,-0.25c1.1,0 1.5,-1.2 1.5,-4.75l0,-4.75l3.25,5c4.9,7.5 6.2,6.75 6.55,-3.75c0.25,-8.15 0.15,-8.75 -1.7,-8.75c-1.65,0 -2.05,0.8 -2.3,4.75l-0.3,4.75l-2.8,-4.75c-4.85,-8.25 -7.25,-6.9 -7.05,4z"/>
  <path d="m91,108.9c0,9.65 0.3,10.1 6.1,10.1c5.8,0 7.15,-2.65 1.65,-3.2l-3.25,-0.3l-0.3,-6.75c-0.25,-5.95 -0.55,-6.75 -2.25,-6.75c-1.75,0 -1.95,0.7 -1.95,6.9z"/>
  <path d="m151,102.45c0,0.25 1,2.15 2.25,4.2c1.2,2.1 2.45,5.8 2.75,8.25c0.65,5.9 4,6.95 4,1.25c0.05,-2.1 1.25,-5.85 2.95,-8.9l2.9,-5.25l-2.5,0c-1.8,0 -2.8,0.85 -3.75,3.1l-1.3,3.05l-1.25,-3.05c-1.1,-2.6 -6.05,-4.8 -6.05,-2.65z"/>
  <path d="m191,107.45c0,9.05 3.4,8.85 4.25,-0.2c0.45,-5 0.35,-5.25 -1.9,-5.25c-2.2,0 -2.35,0.4 -2.35,5.45z"/>
  <path d="m180.8,104.75c-1.3,5.35 0.65,13.6 3.45,14.35c2.3,0.6 2.75,0.4 2.75,-1.2c0,-1.05 -0.45,-1.9 -1,-1.9c-0.55,0 -1,-1.6 -1,-3.5c0,-1.95 0.45,-3.5 1,-3.5c0.55,0 1,-0.7 1,-1.5c0,-0.85 -0.45,-1.5 -1,-1.5c-0.55,0 -1,-0.7 -1,-1.5c0,-2.1 -3.65,-1.9 -4.2,0.25z"/>
  <path d="m71.55,106.55c-2.2,2.25 -2.05,9.7 0.3,11.8c4.5,4.1 10.15,0.75 10.15,-6.1c0,-4.85 -2,-7.25 -6,-7.25c-1.55,0 -3.55,0.7 -4.45,1.55zm6.25,5.8c0.25,3.05 0,3.65 -1.6,3.65c-2.3,0 -3.25,-2.65 -2.05,-5.85c1.25,-3.35 3.3,-2.1 3.65,2.2z"/>
  <path d="m105.75,106.1c-2.5,1.45 -2.45,9.95 0.1,12.25c4.3,3.9 10.15,0.35 10.15,-6.2c0,-6 -5.15,-9.05 -10.25,-6.05zm6.05,6.25c0.25,3.05 0,3.65 -1.6,3.65c-2.3,0 -3.25,-2.65 -2.05,-5.85c1.25,-3.35 3.3,-2.1 3.65,2.2z"/>
  <path d="m119.2,106.2c-3.8,3.8 -0.4,12.55 4.4,11.35c1.9,-0.45 2.45,-0.3 2.15,0.65c-0.25,0.7 -1.55,1.2 -2.85,1.1c-4.05,-0.3 -5.35,0.45 -3.85,2.25c0.85,1.05 2.6,1.45 5.35,1.25l4.1,-0.3l0.3,-8.75l0.3,-8.75l-4.35,0c-2.4,0 -4.9,0.55 -5.55,1.2zm6.6,4.45c0.4,2.85 -2.15,4.85 -3.75,2.95c-0.9,-1.1 -0.9,-2 -0.05,-3.6c1.35,-2.5 3.4,-2.15 3.8,0.65z"/>
  <path d="m133.55,106.55c-2.2,2.25 -2.05,9.7 0.3,11.8c4.5,4.1 10.15,0.75 10.15,-6.1c0,-4.85 -2,-7.25 -6,-7.25c-1.55,0 -3.55,0.7 -4.45,1.55zm6.25,5.8c0.25,3.05 0,3.65 -1.6,3.65c-2.3,0 -3.25,-2.65 -2.05,-5.85c1.25,-3.35 3.3,-2.1 3.65,2.2z"/>
  <path d="m167.65,106.85c-3.9,4.3 -0.75,13.15 4.7,13.15c2.4,0 5.65,-2.75 5.65,-4.85c0,-1.4 -2.65,-1.55 -3.5,-0.15c-0.95,1.55 -4.5,1.15 -4.5,-0.5c0,-1.1 1.1,-1.5 4,-1.5c3.15,0 4,-0.35 4,-1.8c0,-5.3 -6.85,-8.25 -10.35,-4.35z"/>
  <path d="m191,117.5c0,2.15 0.4,2.6 2.25,2.3c1.5,-0.2 2.25,-1 2.25,-2.3c0,-1.3 -0.75,-2.1 -2.25,-2.3c-1.85,-0.3 -2.25,0.15 -2.25,2.3z"/>
 </g></g></g>
</g>
<defs>
<linearGradient id="paint0_linear_0_1" x1="0" y1="198" x2="1584" y2="198" gradientUnits="userSpaceOnUse">
<stop stop-color="#3D052C"/>
<stop offset="1"/>
</linearGradient>
<linearGradient id="paint1_linear_0_1" x1="323" y1="-224" x2="323" y2="352" gradientUnits="userSpaceOnUse">
<stop stop-color="#28F6F2" stop-opacity="0.4"/>
<stop offset="1" stop-color="#17908E" stop-opacity="0.7"/>
</linearGradient>
<linearGradient id="paint2_linear_0_1" x1="148.5" y1="38" x2="148.5" y2="140" gradientUnits="userSpaceOnUse">
<stop stop-color="white"/>
<stop offset="1" stop-color="#999999"/>
</linearGradient>
<linearGradient id="paint3_linear_0_1" x1="38" y1="260" x2="26" y2="260" gradientUnits="userSpaceOnUse">
<stop stop-color="#D9D9D9"/>
<stop offset="1" stop-color="#737373"/>
</linearGradient>
<linearGradient id="paint4_linear_0_1" x1="38" y1="97.5" x2="26" y2="97.5" gradientUnits="userSpaceOnUse">
<stop stop-color="#D9D9D9"/>
<stop offset="1" stop-color="#737373"/>
</linearGradient>
<linearGradient id="paint5_linear_0_1" x1="27.5" y1="434.5" x2="148.5" y2="787" gradientUnits="userSpaceOnUse">
<stop stop-color="#2E21BC"/>
<stop offset="1" stop-color="#150F56"/>
</linearGradient>
<clipPath id="clip0_0_1">
<rect width="1584" height="396" fill="white"/>
</clipPath>
</defs>
</svg>
